<mxfile host="65bd71144e">
    <diagram id="lE01P9NT-ZAjJsfw5CPi" name="Page-1">
        <mxGraphModel dx="1440" dy="1101" grid="0" gridSize="10" guides="1" tooltips="1" connect="1" arrows="1" fold="1" page="1" pageScale="1" pageWidth="850" pageHeight="1100" background="#ffffff" math="0" shadow="0">
            <root>
                <mxCell id="0"/>
                <mxCell id="1" parent="0"/>
                <mxCell id="37" value="" style="rounded=0;whiteSpace=wrap;html=1;fillColor=none;strokeColor=#000000;" vertex="1" parent="1">
                    <mxGeometry width="849" height="1097" as="geometry"/>
                </mxCell>
                <mxCell id="2" value="" style="shape=umlLifeline;participant=umlActor;perimeter=lifelinePerimeter;whiteSpace=wrap;html=1;container=0;collapsible=0;recursiveResize=0;verticalAlign=top;spacingTop=36;outlineConnect=0;strokeWidth=2;strokeColor=#82b366;fillColor=#d5e8d4;" vertex="1" parent="1">
                    <mxGeometry x="240" y="136" width="20" height="640" as="geometry"/>
                </mxCell>
                <mxCell id="3" value="&lt;b&gt;Software&lt;/b&gt;&lt;br&gt;( Client Side )&amp;nbsp;" style="shape=umlLifeline;perimeter=lifelinePerimeter;whiteSpace=wrap;html=1;container=1;collapsible=0;recursiveResize=0;outlineConnect=0;strokeColor=#b85450;strokeWidth=2;fillColor=#f8cecc;fontColor=#000000;" vertex="1" parent="1">
                    <mxGeometry x="360" y="136" width="100" height="640" as="geometry"/>
                </mxCell>
                <mxCell id="4" value="" style="html=1;points=[];perimeter=orthogonalPerimeter;strokeColor=#ae4132;strokeWidth=2;fillColor=#fad9d5;" vertex="1" parent="3">
                    <mxGeometry x="45" y="80" width="10" height="320" as="geometry"/>
                </mxCell>
                <mxCell id="26" value="&lt;b&gt;Get&lt;br&gt;&lt;/b&gt;playlist created&lt;br&gt;in the local data&amp;nbsp;" style="html=1;verticalAlign=bottom;endArrow=block;fontColor=#000000;labelBackgroundColor=#FFFFFF;strokeWidth=2;fillColor=#f8cecc;strokeColor=#b85450;" edge="1" parent="3">
                    <mxGeometry x="0.1667" y="15" width="80" relative="1" as="geometry">
                        <mxPoint x="55" y="120.00000000000011" as="sourcePoint"/>
                        <mxPoint x="55" y="160.0000000000001" as="targetPoint"/>
                        <Array as="points">
                            <mxPoint x="95" y="120"/>
                            <mxPoint x="95" y="160"/>
                        </Array>
                        <mxPoint as="offset"/>
                    </mxGeometry>
                </mxCell>
                <mxCell id="33" value="" style="html=1;points=[];perimeter=orthogonalPerimeter;strokeColor=#ae4132;strokeWidth=2;fillColor=#fad9d5;" vertex="1" parent="3">
                    <mxGeometry x="45" y="480" width="10" height="80" as="geometry"/>
                </mxCell>
                <mxCell id="36" value="&lt;b&gt;Display&lt;/b&gt;&lt;br&gt;selected playlist" style="html=1;verticalAlign=bottom;endArrow=block;fontColor=#000000;labelBackgroundColor=#FFFFFF;strokeWidth=2;fillColor=#f8cecc;strokeColor=#b85450;" edge="1" parent="3">
                    <mxGeometry y="14" width="80" relative="1" as="geometry">
                        <mxPoint x="55" y="520.0000000000002" as="sourcePoint"/>
                        <mxPoint x="55" y="560.0000000000002" as="targetPoint"/>
                        <Array as="points">
                            <mxPoint x="95" y="520"/>
                            <mxPoint x="95" y="560"/>
                        </Array>
                        <mxPoint as="offset"/>
                    </mxGeometry>
                </mxCell>
                <mxCell id="5" value="&lt;b&gt;API&lt;/b&gt;&lt;br&gt;( Server Side )" style="shape=umlLifeline;perimeter=lifelinePerimeter;whiteSpace=wrap;html=1;container=1;collapsible=0;recursiveResize=0;outlineConnect=0;strokeColor=#9673a6;strokeWidth=2;fillColor=#e1d5e7;fontColor=#000000;" vertex="1" parent="1">
                    <mxGeometry x="520" y="136" width="100" height="640" as="geometry"/>
                </mxCell>
                <mxCell id="7" value="&lt;b&gt;Python process&lt;/b&gt;&lt;br&gt;( pytube )" style="shape=umlLifeline;perimeter=lifelinePerimeter;whiteSpace=wrap;html=1;container=1;collapsible=0;recursiveResize=0;outlineConnect=0;strokeColor=#10739e;strokeWidth=2;fillColor=#b1ddf0;fontColor=#000000;" vertex="1" parent="1">
                    <mxGeometry x="680" y="136" width="100" height="640" as="geometry"/>
                </mxCell>
                <mxCell id="19" value="Show All Playlist - Sequences Diagram" style="text;align=center;fontStyle=1;verticalAlign=middle;spacingLeft=3;spacingRight=3;strokeColor=none;rotatable=0;points=[[0,0.5],[1,0.5]];portConstraint=eastwest;fontColor=#000000;fontSize=25;" vertex="1" parent="1">
                    <mxGeometry x="450" y="66" width="80" height="26" as="geometry"/>
                </mxCell>
                <mxCell id="23" value="" style="html=1;points=[];perimeter=orthogonalPerimeter;strokeColor=#82b366;strokeWidth=2;fillColor=#d5e8d4;" vertex="1" parent="1">
                    <mxGeometry x="245" y="216" width="10" height="40" as="geometry"/>
                </mxCell>
                <mxCell id="25" value="&lt;b&gt;Click on&amp;nbsp;&lt;/b&gt;&lt;br&gt;&quot;&lt;i&gt;Show all playlist&lt;/i&gt;&quot; button" style="html=1;verticalAlign=bottom;endArrow=block;fontColor=#000000;labelBackgroundColor=none;strokeWidth=2;fillColor=#d5e8d4;gradientColor=#97d077;strokeColor=#82b366;" edge="1" parent="1" target="3">
                    <mxGeometry width="80" relative="1" as="geometry">
                        <mxPoint x="255.00000000000023" y="216" as="sourcePoint"/>
                        <mxPoint x="335.0000000000002" y="216" as="targetPoint"/>
                        <mxPoint as="offset"/>
                    </mxGeometry>
                </mxCell>
                <mxCell id="28" value="&lt;b&gt;&lt;font style=&quot;font-size: 20px&quot;&gt;Alt&lt;/font&gt;&lt;/b&gt;" style="shape=umlFrame;tabWidth=110;tabHeight=30;tabPosition=left;html=1;boundedLbl=1;labelInHeader=1;width=140;height=30;fillColor=none;strokeColor=#4D4D4D;strokeWidth=2;fontColor=#000000;" vertex="1" parent="1">
                    <mxGeometry x="70" y="331" width="540" height="250" as="geometry"/>
                </mxCell>
                <mxCell id="29" value="[ Customer &#10;haven't a playlistÂ ]" style="text;fontColor=#000000;fontSize=15;" vertex="1" parent="28">
                    <mxGeometry width="100" height="20" relative="1" as="geometry">
                        <mxPoint x="20" y="40" as="offset"/>
                    </mxGeometry>
                </mxCell>
                <mxCell id="30" value="[ Else ]" style="line;strokeWidth=2;dashed=1;labelPosition=center;verticalLabelPosition=bottom;align=left;verticalAlign=top;spacingLeft=20;spacingTop=15;fontColor=#000000;strokeColor=#4D4D4D;labelBackgroundColor=none;fontSize=15;" vertex="1" parent="28">
                    <mxGeometry y="125" width="540" height="10" as="geometry"/>
                </mxCell>
                <mxCell id="31" value="&lt;b&gt;Display&amp;nbsp;&lt;/b&gt;&lt;br&gt;&quot;&lt;i&gt;Create Playlist&lt;/i&gt;&quot; modal" style="html=1;verticalAlign=bottom;endArrow=block;fontColor=#000000;labelBackgroundColor=#FFFFFF;strokeWidth=2;fillColor=#f8cecc;strokeColor=#b85450;" edge="1" parent="28">
                    <mxGeometry y="34" width="80" relative="1" as="geometry">
                        <mxPoint x="346" y="45.00000000000023" as="sourcePoint"/>
                        <mxPoint x="346" y="85.00000000000023" as="targetPoint"/>
                        <Array as="points">
                            <mxPoint x="386" y="45"/>
                            <mxPoint x="386" y="85"/>
                        </Array>
                        <mxPoint as="offset"/>
                    </mxGeometry>
                </mxCell>
                <mxCell id="32" value="&lt;b&gt;Display&lt;/b&gt;&lt;br&gt;all playlist" style="html=1;verticalAlign=bottom;endArrow=block;fontColor=#000000;labelBackgroundColor=#FFFFFF;strokeWidth=2;fillColor=#f8cecc;strokeColor=#b85450;" edge="1" parent="28">
                    <mxGeometry y="14" width="80" relative="1" as="geometry">
                        <mxPoint x="346" y="165.00000000000023" as="sourcePoint"/>
                        <mxPoint x="346" y="205.00000000000023" as="targetPoint"/>
                        <Array as="points">
                            <mxPoint x="386" y="165"/>
                            <mxPoint x="386" y="205"/>
                        </Array>
                        <mxPoint as="offset"/>
                    </mxGeometry>
                </mxCell>
                <mxCell id="34" value="" style="html=1;points=[];perimeter=orthogonalPerimeter;strokeColor=#82b366;strokeWidth=2;fillColor=#d5e8d4;" vertex="1" parent="1">
                    <mxGeometry x="245" y="616" width="10" height="40" as="geometry"/>
                </mxCell>
                <mxCell id="35" value="&lt;b&gt;Click on&amp;nbsp;&lt;/b&gt;&lt;br&gt;playlist&lt;u&gt; &lt;i&gt;list item&lt;/i&gt;&lt;/u&gt;" style="html=1;verticalAlign=bottom;endArrow=block;fontColor=#000000;labelBackgroundColor=none;strokeWidth=2;fillColor=#d5e8d4;gradientColor=#97d077;strokeColor=#82b366;" edge="1" parent="1">
                    <mxGeometry width="80" relative="1" as="geometry">
                        <mxPoint x="255.00000000000023" y="616" as="sourcePoint"/>
                        <mxPoint x="409" y="616" as="targetPoint"/>
                        <mxPoint as="offset"/>
                    </mxGeometry>
                </mxCell>
            </root>
        </mxGraphModel>
    </diagram>
</mxfile>